<svg xmlns="http://www.w3.org/2000/svg" width="400" zoomAndPan="magnify" viewBox="0 0 300 299.999988" height="400"
     preserveAspectRatio="xMidYMid meet" version="1.2"><defs><clipPath id="4032c035a2"><path d="M 32 32 L 209 32 L 209 207 L 32 207 Z M 32 32 "/></clipPath><clipPath id="571e6120e4"><path d="M 124.960938 32.046875 C 106.429688 32.046875 91.40625 46.589844 91.40625 64.53125 L 91.40625 87.023438 L 149.480469 87.023438 L 149.480469 93.273438 L 65.597656 93.273438 C 47.066406 93.273438 32.046875 107.816406 32.046875 125.757812 L 32.046875 174.488281 C 32.046875 192.433594 47.066406 206.976562 65.597656 206.976562 L 84.957031 206.976562 L 84.957031 179.488281 C 84.957031 161.546875 99.976562 147 118.507812 147 L 180.449219 147 C 196.128906 147 208.839844 134.691406 208.839844 119.511719 L 208.839844 64.53125 C 208.839844 46.589844 193.820312 32.046875 175.289062 32.046875 Z M 117.21875 72.03125 C 123.632812 72.03125 128.832031 66.996094 128.832031 60.785156 C 128.832031 54.574219 123.632812 49.539062 117.21875 49.539062 C 110.800781 49.539062 105.601562 54.574219 105.601562 60.785156 C 105.601562 66.996094 110.800781 72.03125 117.21875 72.03125 Z M 117.21875 72.03125 "/></clipPath><linearGradient x1="12.481" gradientTransform="matrix(8.434204,0,0,8.434204,15.177144,15.177119)" y1="2.000002" x2="12.481" gradientUnits="userSpaceOnUse" y2="22.740701" id="eb4aa4a8e9"><stop style="stop-color:#327ebd;stop-opacity:1;" offset="0"/><stop style="stop-color:#327ebd;stop-opacity:1;" offset="0.03125"/><stop style="stop-color:#317dbc;stop-opacity:1;" offset="0.0625"/><stop style="stop-color:#307cbb;stop-opacity:1;" offset="0.09375"/><stop style="stop-color:#2f7bbb;stop-opacity:1;" offset="0.125"/><stop style="stop-color:#2e7aba;stop-opacity:1;" offset="0.15625"/><stop style="stop-color:#2d7ab9;stop-opacity:1;" offset="0.1875"/><stop style="stop-color:#2c79b8;stop-opacity:1;" offset="0.21875"/><stop style="stop-color:#2b78b8;stop-opacity:1;" offset="0.25"/><stop style="stop-color:#2a77b7;stop-opacity:1;" offset="0.28125"/><stop style="stop-color:#2977b6;stop-opacity:1;" offset="0.3125"/><stop style="stop-color:#2876b6;stop-opacity:1;" offset="0.34375"/><stop style="stop-color:#2875b5;stop-opacity:1;" offset="0.375"/><stop style="stop-color:#2774b4;stop-opacity:1;" offset="0.40625"/><stop style="stop-color:#2673b4;stop-opacity:1;" offset="0.4375"/><stop style="stop-color:#2573b3;stop-opacity:1;" offset="0.46875"/><stop style="stop-color:#2472b2;stop-opacity:1;" offset="0.5"/><stop style="stop-color:#2371b2;stop-opacity:1;" offset="0.53125"/><stop style="stop-color:#2270b1;stop-opacity:1;" offset="0.5625"/><stop style="stop-color:#2170b0;stop-opacity:1;" offset="0.59375"/><stop style="stop-color:#206fb0;stop-opacity:1;" offset="0.625"/><stop style="stop-color:#1f6eaf;stop-opacity:1;" offset="0.65625"/><stop style="stop-color:#1e6dae;stop-opacity:1;" offset="0.6875"/><stop style="stop-color:#1e6cae;stop-opacity:1;" offset="0.71875"/><stop style="stop-color:#1d6cad;stop-opacity:1;" offset="0.75"/><stop style="stop-color:#1c6bac;stop-opacity:1;" offset="0.78125"/><stop style="stop-color:#1b6aab;stop-opacity:1;" offset="0.8125"/><stop style="stop-color:#1a69ab;stop-opacity:1;" offset="0.84375"/><stop style="stop-color:#1968aa;stop-opacity:1;" offset="0.875"/><stop style="stop-color:#1868a9;stop-opacity:1;" offset="0.90625"/><stop style="stop-color:#1767a9;stop-opacity:1;" offset="0.9375"/><stop style="stop-color:#1666a8;stop-opacity:1;" offset="0.96875"/><stop style="stop-color:#1565a7;stop-opacity:1;" offset="1"/></linearGradient><clipPath id="690f0093d2"><path d="M 91 93 L 269 93 L 269 269 L 91 269 Z M 91 93 "/></clipPath><clipPath id="5707e866f7"><path d="M 175.285156 268.203125 C 193.816406 268.203125 208.839844 253.660156 208.839844 235.714844 L 208.839844 213.226562 L 150.769531 213.226562 L 150.769531 206.976562 L 234.648438 206.976562 C 253.179688 206.976562 268.203125 192.433594 268.203125 174.488281 L 268.203125 125.757812 C 268.203125 107.816406 253.179688 93.273438 234.648438 93.273438 L 215.292969 93.273438 L 215.292969 120.761719 C 215.292969 138.703125 200.269531 153.25 181.738281 153.25 L 119.796875 153.25 C 104.117188 153.25 91.40625 165.554688 91.40625 180.738281 L 91.40625 235.714844 C 91.40625 253.660156 106.429688 268.203125 124.957031 268.203125 Z M 183.03125 228.21875 C 176.617188 228.21875 171.414062 233.253906 171.414062 239.464844 C 171.414062 245.675781 176.617188 250.710938 183.03125 250.710938 C 189.445312 250.710938 194.644531 245.675781 194.644531 239.464844 C 194.644531 233.253906 189.445312 228.21875 183.03125 228.21875 Z M 183.03125 228.21875 "/></clipPath><clipPath id="dbcfb18f52"><path d="M 121.199219 168.089844 L 223.113281 168.089844 L 223.113281 270 L 121.199219 270 Z M 121.199219 168.089844 "/></clipPath><clipPath id="b6ef45848c"><path d="M 172.15625 168.089844 C 144.015625 168.089844 121.199219 190.902344 121.199219 219.042969 C 121.199219 247.1875 144.015625 270 172.15625 270 C 200.296875 270 223.113281 247.1875 223.113281 219.042969 C 223.113281 190.902344 200.296875 168.089844 172.15625 168.089844 Z M 172.15625 168.089844 "/></clipPath><clipPath id="0d200a99ee"><path d="M 130.171875 177.058594 L 214.171875 177.058594 L 214.171875 261 L 130.171875 261 Z M 130.171875 177.058594 "/></clipPath><clipPath id="bfa574c804"><path d="M 104.765625 48.484375 L 130.171875 48.484375 L 130.171875 73.886719 L 104.765625 73.886719 Z M 104.765625 48.484375 "/></clipPath><clipPath id="410236e773"><path d="M 117.46875 48.484375 C 110.453125 48.484375 104.765625 54.167969 104.765625 61.183594 C 104.765625 68.199219 110.453125 73.886719 117.46875 73.886719 C 124.484375 73.886719 130.171875 68.199219 130.171875 61.183594 C 130.171875 54.167969 124.484375 48.484375 117.46875 48.484375 Z M 117.46875 48.484375 "/></clipPath></defs><g id="b23eb6abac"><g clip-rule="nonzero" clip-path="url(#4032c035a2)"><g clip-rule="evenodd" clip-path="url(#571e6120e4)"><path style=" stroke:none;fill-rule:nonzero;fill:url(#eb4aa4a8e9);" d="M 32.046875 32.046875 L 32.046875 206.976562 L 208.839844 206.976562 L 208.839844 32.046875 Z M 32.046875 32.046875 "/></g></g><g clip-rule="nonzero" clip-path="url(#690f0093d2)"><g clip-rule="evenodd" clip-path="url(#5707e866f7)"><path style=" stroke:none;fill-rule:nonzero;fill:#6db33f;fill-opacity:1;" d="M 91.40625 93.273438 L 91.40625 268.203125 L 268.203125 268.203125 L 268.203125 93.273438 Z M 91.40625 93.273438 "/></g></g><g clip-rule="nonzero" clip-path="url(#dbcfb18f52)"><g clip-rule="nonzero" clip-path="url(#b6ef45848c)"><path style=" stroke:none;fill-rule:nonzero;fill:#ffffff;fill-opacity:1;" d="M 121.199219 168.089844 L 223.113281 168.089844 L 223.113281 270 L 121.199219 270 Z M 121.199219 168.089844 "/></g></g><g clip-rule="nonzero" clip-path="url(#0d200a99ee)"><path style=" stroke:none;fill-rule:nonzero;fill:#6db33f;fill-opacity:1;" d="M 142.949219 188.832031 C 159.542969 172.753906 186.082031 173.183594 202.160156 189.867188 C 203.976562 187.449219 205.53125 184.769531 206.65625 182.003906 C 211.925781 198.078125 215.125 211.5625 213.914062 222.023438 C 213.308594 230.839844 209.851562 239.3125 204.148438 246.054688 C 189.28125 263.6875 162.828125 265.933594 145.195312 251.066406 L 144.859375 250.765625 L 144.839844 250.753906 C 144.785156 250.71875 144.730469 250.675781 144.675781 250.636719 C 144.515625 250.511719 144.371094 250.375 144.238281 250.226562 L 144.191406 250.175781 L 143.640625 249.683594 C 143.101562 249.222656 142.5625 248.761719 142.085938 248.242188 L 141.910156 248.042969 C 125.832031 231.445312 126.351562 204.910156 142.949219 188.832031 Z M 149.171875 245.101562 C 147.617188 243.894531 145.367188 244.066406 144.160156 245.621094 C 143.09375 246.988281 143.101562 248.894531 144.175781 250.15625 L 144.191406 250.175781 L 144.859375 250.765625 L 144.925781 250.8125 C 146.433594 251.804688 148.46875 251.601562 149.628906 250.195312 L 149.691406 250.117188 C 150.902344 248.5625 150.640625 246.3125 149.171875 245.101562 Z M 206.222656 186.324219 C 201.902344 195.398438 191.183594 202.316406 181.933594 204.476562 C 173.203125 206.550781 165.59375 204.820312 157.558594 207.933594 C 139.230469 214.933594 139.578125 236.71875 149.605469 241.644531 L 150.210938 241.992188 C 150.210938 241.992188 157.453125 240.550781 164.613281 238.648438 L 165.226562 238.484375 C 168.089844 237.714844 170.902344 236.875 173.203125 236.027344 C 185.132812 231.617188 198.269531 220.726562 202.59375 208.105469 C 200.34375 221.246094 189.019531 233.953125 177.699219 239.742188 C 171.648438 242.855469 166.980469 243.546875 157.039062 247.003906 C 155.828125 247.4375 154.878906 247.867188 154.878906 247.867188 C 155 247.851562 155.121094 247.835938 155.242188 247.820312 L 155.480469 247.789062 L 155.722656 247.757812 C 157.917969 247.488281 159.890625 247.351562 159.890625 247.351562 C 173.980469 246.660156 196.109375 251.328125 206.394531 237.582031 C 216.941406 223.578125 211.0625 200.933594 206.222656 186.324219 Z M 206.222656 186.324219 "/></g><path style=" stroke:none;fill-rule:nonzero;fill:#ffffff;fill-opacity:1;" d="M 149.171875 245.101562 C 150.640625 246.3125 150.902344 248.5625 149.691406 250.117188 C 148.480469 251.671875 146.234375 251.84375 144.675781 250.636719 C 143.121094 249.425781 142.949219 247.175781 144.160156 245.621094 C 145.367188 244.066406 147.617188 243.894531 149.171875 245.101562 Z M 206.222656 186.324219 C 211.0625 200.933594 216.941406 223.578125 206.394531 237.582031 C 196.109375 251.328125 173.980469 246.660156 159.890625 247.351562 C 159.890625 247.351562 157.917969 247.488281 155.722656 247.757812 L 155.480469 247.789062 C 155.28125 247.8125 155.078125 247.839844 154.878906 247.867188 C 154.878906 247.867188 155.828125 247.4375 157.039062 247.003906 C 166.980469 243.546875 171.648438 242.855469 177.699219 239.742188 C 189.019531 233.953125 200.34375 221.246094 202.59375 208.105469 C 198.269531 220.726562 185.132812 231.617188 173.203125 236.027344 C 164.992188 239.050781 150.210938 241.992188 150.210938 241.992188 L 149.605469 241.644531 C 139.578125 236.71875 139.230469 214.933594 157.558594 207.933594 C 165.59375 204.820312 173.203125 206.550781 181.933594 204.476562 C 191.183594 202.316406 201.902344 195.398438 206.222656 186.324219 Z M 206.222656 186.324219 "/><g clip-rule="nonzero" clip-path="url(#bfa574c804)"><g clip-rule="nonzero" clip-path="url(#410236e773)"><path style=" stroke:none;fill-rule:nonzero;fill:#ffffff;fill-opacity:1;" d="M 104.765625 48.484375 L 130.171875 48.484375 L 130.171875 73.886719 L 104.765625 73.886719 Z M 104.765625 48.484375 "/></g></g></g></svg>